<?xml version="1.0" encoding="UTF-8"?><svg id="Layer_1" xmlns="http://www.w3.org/2000/svg" viewBox="0 0 500 500"><path d="M419.12.01H80.88C36.22.01,0,36.22,0,80.89v419.1h419.12c44.67,0,80.88-36.21,80.88-80.88V80.89C500,36.22,463.79,0,419.12,0h0ZM359.5,429.84h-49.58v-131.07c0-13.11-2.87-22.98-8.63-29.61-5.75-6.63-14.18-9.93-25.29-9.93-5.08,0-9.8.87-14.15,2.61-4.35,1.74-8.16,4.25-11.44,7.53-3.29,3.28-5.86,7.4-7.73,12.34-1.87,4.95-2.81,10.64-2.81,17.06v131.07h-49.78v-131.07c0-13.78-2.78-23.82-8.33-30.11-5.55-6.28-13.75-9.44-24.58-9.44-7.1,0-13.75,1.78-19.97,5.32s-12.01,8.4-17.36,14.55v150.75h-49.57v-205.94h30.31c6.42,0,10.64,3.01,12.65,9.03l3.21,15.25c3.62-4.01,7.4-7.7,11.35-11.04,3.94-3.34,8.16-6.22,12.65-8.63,4.48-2.4,9.3-4.31,14.46-5.72,5.15-1.41,10.8-2.11,16.96-2.11,12.98,0,23.66,3.51,32.02,10.54,8.36,7.03,14.62,16.36,18.77,28,3.22-6.82,7.23-12.67,12.04-17.57,4.82-4.88,10.1-8.86,15.86-11.94,5.75-3.08,11.88-5.35,18.37-6.82,6.49-1.47,13.02-2.21,19.57-2.21,11.37,0,21.47,1.74,30.31,5.21,8.83,3.48,16.26,8.56,22.28,15.25,6.02,6.69,10.6,14.85,13.75,24.49,3.14,9.63,4.72,20.68,4.72,33.12v131.07h-.02Z" style="fill:#84bd00; stroke-width:0px;"/></svg>